<svg width="48" height="48" viewBox="0 0 48 48" fill="none" xmlns="http://www.w3.org/2000/svg">
<path fill-rule="evenodd" clip-rule="evenodd" d="M8.00237 0H39.9976C44.4153 0 48 3.58383 48 8V40C48 44.4162 44.4153 48 39.9976 48H8.00237C3.57069 48 0 44.4162 0 40V8C0 3.58383 3.57069 0 8.00237 0Z" fill="#003399"/>
<path fill-rule="evenodd" clip-rule="evenodd" d="M3.97533 39.9706H7.68385V24.041H3.97533V39.9706Z" fill="#FFFF00"/>
<path fill-rule="evenodd" clip-rule="evenodd" d="M26.465 35.5739C26.465 35.7705 26.4509 35.9813 26.4088 36.178C26.4088 36.2061 26.3807 36.2903 26.3666 36.3043C26.3526 36.3184 26.3526 36.3465 26.3385 36.3605C26.0155 37.1331 25.1305 37.8775 23.9647 37.8775C22.9392 37.8775 22.2368 37.3438 22.2368 36.3465C22.2368 35.2226 23.192 34.6468 24.6248 34.422C24.9619 34.3658 25.3271 34.3377 25.7204 34.3236C25.9593 34.3097 26.198 34.3097 26.451 34.3097V35.5739H26.465ZM24.3439 27.6934C22.0683 27.6934 20.3685 28.2833 19.4414 28.8171L20.1438 31.163C20.9866 30.6573 22.4194 30.2078 23.7258 30.2078C25.9031 30.2078 26.3526 31.3035 26.3526 31.8653V31.9918C21.5345 31.9777 18.5564 33.537 18.5564 36.6275C18.5564 38.4396 20.0033 40.2796 22.6582 40.2796C24.2456 40.2796 25.58 39.7038 26.3949 38.7486H26.4369L26.8444 39.9847H29.8645V32.9189C29.8645 30.0393 28.4457 27.6934 24.3439 27.6934Z" fill="#FFFF00"/>
<path fill-rule="evenodd" clip-rule="evenodd" d="M40.1189 28.0444V35.0399C40.1189 35.3208 40.0909 35.5737 39.9924 35.7984C39.6975 36.5149 38.9671 37.3296 37.7591 37.3296C36.2419 37.3296 35.5817 36.2198 35.5817 34.3517V28.0303H31.9575V35.0118C31.9575 35.953 32.0699 36.7396 32.2946 37.3999C32.5194 38.06 32.8284 38.5938 33.2217 39.0152C33.615 39.4368 34.0787 39.7598 34.6266 39.9564C35.1743 40.1531 35.7784 40.2515 36.4246 40.2515C37.0004 40.2515 37.5062 40.1812 37.9416 40.0407C38.3771 39.9002 38.7705 39.7317 39.0795 39.535C39.4025 39.3384 39.6695 39.1277 39.8801 38.9028C40.0909 38.6781 40.2594 38.4675 40.3859 38.2848L40.8494 39.9845H43.7853V28.0444H40.1189Z" fill="#FFFF00"/>
<path fill-rule="evenodd" clip-rule="evenodd" d="M11.1816 24.041V28.0305H9.48183V30.7556H11.1816V35.6159C11.1816 37.2173 11.5047 38.4254 12.1929 39.1559C12.797 39.802 13.8365 40.2655 15.1148 40.2655C16.2105 40.2655 16.6319 40.0969 17.1236 39.9144V37.1471C17.0252 37.1892 16.7303 37.2454 16.3649 37.2454C15.0726 37.2454 14.7777 36.4448 14.7777 34.9837V30.7556H17.0814V28.0305H14.7777V24.041H11.1816Z" fill="#FFFF00"/>
<path fill-rule="evenodd" clip-rule="evenodd" d="M38.7423 24.041L36.5088 27.2578H39.0935L42.2542 24.041H38.7423Z" fill="#FFFF00"/>
</svg>
